<?xml version="1.0"?>
<svg xmlns="http://www.w3.org/2000/svg" viewBox="0 0 64 64" width="512" height="512"><g id="Layer_32" data-name="Layer 32"><path d="M58,1H6A5,5,0,0,0,1,6V42a5,5,0,0,0,5,5H24v8H21a5,5,0,0,0-5,5v2a1,1,0,0,0,1,1H47a1,1,0,0,0,1-1V60a5,5,0,0,0-5-5H40V47H58a5,5,0,0,0,5-5V6A5,5,0,0,0,58,1ZM46,60v1H18V60a3,3,0,0,1,3-3H43A3,3,0,0,1,46,60Zm-8-5H26V47H38ZM61,42a3,3,0,0,1-3,3H6a3,3,0,0,1-3-3V6A3,3,0,0,1,6,3H58a3,3,0,0,1,3,3Z"/><path d="M58,5H6A1,1,0,0,0,5,6V42a1,1,0,0,0,1,1H58a1,1,0,0,0,1-1V6A1,1,0,0,0,58,5ZM57,41H7V7H57Z"/><path d="M17,31v3a1,1,0,0,0,1,1h4a1,1,0,0,0,1-1V31h3a1,1,0,0,0,1-1V26a1,1,0,0,0-1-1H23V22a1,1,0,0,0-1-1H18a1,1,0,0,0-1,1v3H14a1,1,0,0,0-1,1v4a1,1,0,0,0,1,1Zm-2-4h3a1,1,0,0,0,1-1V23h2v3a1,1,0,0,0,1,1h3v2H22a1,1,0,0,0-1,1v3H19V30a1,1,0,0,0-1-1H15Z"/><path d="M20,39a11,11,0,0,0,8.48-4h7A11,11,0,1,0,44,17H35V14a1,1,0,0,0-1-1H33V12a4,4,0,0,0-8,0,1,1,0,0,1-1,1H17v2h7a3,3,0,0,0,3-3,2,2,0,0,1,4,0v1H30a1,1,0,0,0-1,1v3H20a11,11,0,0,0,0,22ZM53,28a9,9,0,1,1-9-9A9,9,0,0,1,53,28ZM31,15h2v2H31Zm6.7,4a11,11,0,0,0-3.49,14H29.79A11,11,0,0,0,26.3,19ZM20,19a9,9,0,1,1-9,9A9,9,0,0,1,20,19Z"/><path d="M44,23.41l1.29,1.3,1.42-1.42-2-2a1,1,0,0,0-1.42,0l-2,2,1.42,1.42Z"/><path d="M44,35a1,1,0,0,0,.71-.29l2-2-1.42-1.42L44,32.59l-1.29-1.3-1.42,1.42,2,2A1,1,0,0,0,44,35Z"/><path d="M48.71,30.71l2-2a1,1,0,0,0,0-1.42l-2-2-1.42,1.42L48.59,28l-1.3,1.29Z"/><path d="M37.29,28.71l2,2,1.42-1.42L39.41,28l1.3-1.29-1.42-1.42-2,2A1,1,0,0,0,37.29,28.71Z"/></g></svg>
